<?xml version="1.0" encoding="utf-8"?>
<!-- Generator: Adobe Illustrator 18.1.0, SVG Export Plug-In . SVG Version: 6.00 Build 0)  -->
<svg version="1.1" id="Layer_1" xmlns="http://www.w3.org/2000/svg" xmlns:xlink="http://www.w3.org/1999/xlink" x="0px" y="0px"
	 viewBox="0 0 482.6 498.9" enable-background="new 0 0 482.6 498.9" xml:space="preserve">
<g>
	<defs>
		<rect id="SVGID_1_" x="0" y="0" width="482.6" height="498.9"/>
	</defs>
	<clipPath id="SVGID_2_">
		<use xlink:href="#SVGID_1_"  overflow="visible"/>
	</clipPath>
	<path clip-path="url(#SVGID_2_)" fill="#E9D5EA" d="M425.7,0l9.5,16.9c-37.4,35.4-78.9,92.3-124.4,168.5
		c-44.9,75.4-80.2,147.7-104.7,212.3l-19,19.2c-14.3,13.1-25.8,25.4-32.6,31.5c-1.4-10.8-6.1-26.9-14.3-52.3l-8.2-23.1
		c-9.5-32.3-19-55.4-28.6-70c-8.2-14.6-17.7-25.4-29.2-31.5c17.7-25.4,35.3-37.7,51.7-37.7c12.9,0,27.2,25.4,43.5,71.5l8.2,23.1
		c30.6-63.1,67.3-128.5,112.9-187.7C336.6,80,382.2,31.5,425.7,0"/>
	<path clip-path="url(#SVGID_2_)" fill="#873299" d="M185,250c-6.1,3.7-12.9,6.6-19.7,8c-6.1,2.3-12.9,3-19.7,3
		c-10.9,0-22.4-3-34-10.3c-11.6-6.6-23.2-16-33.3-28.2c5.3,4.4,11.5,7.3,19,8.7c7.5,2.1,14.9,3.6,23,3.6c6.8,0,13.6-1.4,19.7-2.8
		c6.8-1.4,13.6-3.6,19-7.1l-4-12.4l25.8,24.5L185,250z M93.2,217.4c-12.9-5.7-23.2-14.5-29.3-24.7c-6.8-10.3-9.5-22.5-9.5-36.3
		c0-19,6.1-35.8,19-49.6C86.4,93,102,85.7,119.7,85.7c5.5,0,9.6,0.7,14.2,1.4c4.1,1.6,8.3,3,11.6,5.1l4.1-12.4l29.8,29.9l-5.3,12.4
		c-4.8-3.7-9.6-5.8-14.4-7.3c-4.7-1.6-9.5-2.3-14.2-2.3c-17.7,0-32.6,6.6-44.9,19.7c-12.3,13.1-18.4,29.1-18.4,48
		c0,7.3,0.7,13.8,2.8,20.4C87.1,207.3,89.8,213.1,93.2,217.4 M206.8,155.6V89.4h14.9c10.3,0,18.4,2.1,23.2,6.6
		c5.3,4.3,8.8,11.5,10.1,21.1c-2-0.7-4-1.4-6.8-2.1c-2.7,0-6.1-0.9-9.5-0.9v37.2c-2.8,1.4-6.1,2.8-10.3,3.6
		c-4.1,0.7-8.8,0.7-14.2,0.7H206.8z M206.8,231.2v-64h6.8c16.9,0,30.6-3.6,39.4-11.7c8.8-8,13.6-19.5,13.6-34.2
		c0-4.3-0.7-8.7-2-12.3c-1.5-4.4-3.5-8.8-6.1-13.1c11.6,9.4,19.7,19,25.2,26.9c5.5,8.7,8.1,17.4,8.1,25.4c0,15.4-4.8,26.9-13.6,35.8
		c-9.6,8.7-21,13.8-36.8,13.8h-2.7V261H223l-28.5-29.8H206.8z M334.6,261l-26.5-29.8h14.9c13.6,0,24.5-0.7,33.3-2.1
		c8.8-2.1,16.4-5.1,23.2-9.4c9.5-5.8,17.6-14.5,23-25.5c5.5-11,8.3-23.2,8.3-36.3c0-8.8-1.5-17.5-4.1-26.2c-2.8-8-6.1-16-11.6-22.5
		c13.6,11.5,23.8,23.9,30.6,36.3c6.8,13.1,9.5,26.9,9.5,42.2c0,21.1-6.8,39.3-21,52.3c-14.2,13.8-33.3,21.1-55.8,21.1H334.6z
		 M318.9,220.4v-131h21.8c12.3,0,22.4,2.8,30.5,8.7c8.2,5.8,15.7,16,21.8,29.1c-5.5-2.1-10.2-4.3-15-5c-4.7-1.6-8.8-2.3-12.9-2.3
		h-12.9v98.3c-3.3,0.7-7.4,1.4-11.5,1.4c-4.8,0.7-9.6,0.7-14.4,0.7H318.9z"/>
	<path clip-path="url(#SVGID_2_)" d="M66.3,328.4l-4.4,11.4c-2.8,1-5.4,1.7-7.8,2.2c-2.4,0.5-4.7,0.7-7,0.7c-3.3,0-6.5-0.5-9.6-1.4
		c-3.1-0.9-6.1-2.3-8.8-4c-4.4-2.8-7.9-6.7-10.3-11.6c-2.5-4.9-3.7-10.3-3.7-16.2c0-4.4,0.9-8.7,2.7-12.9s4.3-7.9,7.6-11.1
		c3-2.9,6.4-5.2,10.3-6.7c3.9-1.5,8-2.3,12.3-2.3c2.1,0,4.2,0.2,6.5,0.6c2.3,0.4,4.7,1,7.3,1.9v10.1c-2.7-1.5-5.2-2.6-7.6-3.4
		c-2.4-0.7-4.7-1.1-7-1.1c-6.6,0-11.9,2.2-15.8,6.5c-4,4.4-6,10.2-6,17.4c0,7.9,2.1,14.3,6.2,19.1c4.1,4.9,9.5,7.3,16.2,7.3
		c2.7,0,5.7-0.5,8.8-1.6C59.3,332.3,62.7,330.6,66.3,328.4 M80.2,341.1c1.2-1.2,2.1-2.6,2.7-4.1c0.5-1.5,0.8-3.9,0.8-7.1v-40.8
		c0-3.2-0.3-5.5-0.8-7c-0.5-1.5-1.4-2.9-2.7-4.1h32.3v9.9c-1.4-1.2-3-2.1-4.8-2.6c-1.7-0.5-3.7-0.8-6-0.8c-1.2,0-2.5,0.1-3.9,0.3
		c-1.4,0.2-3.1,0.5-4.9,0.9v17.8h14.4v9.2c-0.7-0.8-1.6-1.4-2.7-1.8c-1.2-0.4-3.3-0.5-6.4-0.5h-5.3v22.6c2.2,0.4,4.3,0.7,6.1,0.8
		c1.8,0.2,3.4,0.3,4.7,0.3c3,0,5.8-0.4,8.5-1.3c2.6-0.9,5.3-2.2,7.9-4l-4.1,12.4H80.2z M145.8,329.9c0,3.2,0.3,5.5,0.8,7.1
		c0.5,1.5,1.4,2.9,2.7,4.1h-16.2c1.2-1.2,2.1-2.6,2.7-4.1c0.5-1.5,0.8-3.9,0.8-7.1v-40.8c0-3.2-0.3-5.5-0.8-7
		c-0.5-1.5-1.4-2.9-2.7-4.1h20.4c5.8,0,10.5,1.5,14.1,4.5c3.6,3,5.4,6.8,5.4,11.6c0,3.4-1.1,6.5-3.2,9.1c-2.1,2.6-5.5,4.9-10,6.9
		L175,332c0.9,1.3,2,2.7,3.3,4.1c1.3,1.4,2.7,3,4.4,4.5l-4.6,0.4h-0.7c-2.1,0-4.3-0.6-6.3-1.8c-2-1.2-3.8-2.9-5.2-5l-17.6-25.9
		c5.2-1.2,9.1-2.9,11.5-5.1c2.4-2.2,3.6-5,3.6-8.4c0-3.2-1-5.8-3.1-7.8c-2.1-2-4.8-3-8.2-3c-0.8,0-1.7,0.1-2.7,0.2
		c-1.1,0.1-2.3,0.4-3.7,0.6V329.9z M214.4,329.9c0,3.2,0.3,5.5,0.8,7.1c0.5,1.5,1.4,2.9,2.7,4.1h-16.2c1.3-1.2,2.2-2.6,2.7-4.1
		c0.5-1.5,0.8-3.9,0.8-7.1v-45h-4.7c-3.3,0-6,0.3-8,0.8c-2,0.5-3.7,1.4-4.9,2.6l2.9-10.4h42.1l-2.8,10.2c-0.9-1.1-2-1.9-3.4-2.5
		c-1.4-0.5-3.2-0.8-5.4-0.8h-6.6V329.9z M258.8,329.9c0,3.2,0.3,5.5,0.8,7.1c0.5,1.5,1.4,2.9,2.7,4.1h-16.2c1.3-1.2,2.2-2.6,2.7-4.1
		c0.5-1.5,0.8-3.9,0.8-7.1v-40.8c0-3.2-0.3-5.5-0.8-7c-0.5-1.5-1.4-2.9-2.7-4.1h16.2c-1.3,1.2-2.2,2.5-2.7,4c-0.5,1.5-0.8,3.9-0.8,7
		V329.9z M292,329.9c0,3.2,0.3,5.5,0.8,7.1c0.5,1.5,1.4,2.9,2.7,4.1h-16.2c1.2-1.2,2.1-2.6,2.7-4.1c0.5-1.5,0.8-3.9,0.8-7.1v-40.8
		c0-3.2-0.3-5.5-0.8-7c-0.5-1.5-1.4-2.9-2.7-4.1h32.3v9.9c-1.4-1.2-3-2.1-4.8-2.6c-1.7-0.5-3.7-0.8-6-0.8c-1.2,0-2.5,0.1-3.9,0.3
		s-3.1,0.5-4.9,0.9v17.8h14.4v9.2c-0.7-0.8-1.6-1.4-2.8-1.8c-1.2-0.4-3.3-0.5-6.4-0.5H292V329.9z M340.7,329.9
		c0,3.2,0.3,5.5,0.8,7.1c0.5,1.5,1.4,2.9,2.7,4.1H328c1.3-1.2,2.2-2.6,2.7-4.1c0.5-1.5,0.8-3.9,0.8-7.1v-40.8c0-3.2-0.3-5.5-0.8-7
		c-0.5-1.5-1.4-2.9-2.7-4.1h16.2c-1.3,1.2-2.2,2.5-2.7,4c-0.5,1.5-0.8,3.9-0.8,7V329.9z M361.2,341.1c1.2-1.2,2.1-2.6,2.7-4.1
		c0.5-1.5,0.8-3.9,0.8-7.1v-40.8c0-3.2-0.3-5.5-0.8-7c-0.5-1.5-1.4-2.9-2.7-4.1h32.3v9.9c-1.4-1.2-3-2.1-4.8-2.6s-3.7-0.8-6-0.8
		c-1.2,0-2.5,0.1-3.9,0.3c-1.4,0.2-3.1,0.5-4.9,0.9v17.8h14.4v9.2c-0.7-0.8-1.6-1.4-2.8-1.8c-1.2-0.4-3.3-0.5-6.4-0.5h-5.3v22.6
		c2.2,0.4,4.3,0.7,6.1,0.8c1.8,0.2,3.4,0.3,4.7,0.3c3,0,5.8-0.4,8.5-1.3c2.7-0.9,5.3-2.2,7.9-4l-4.1,12.4H361.2z M426.1,333.5
		c2.1,0.4,4,0.6,5.5,0.8c1.6,0.2,2.9,0.3,4,0.3c6.6,0,12-2.4,16.3-7.1c4.3-4.7,6.4-10.7,6.4-18c0-7.4-2.1-13.4-6.4-17.9
		c-4.2-4.5-9.9-6.8-16.9-6.8c-1.5,0-2.9,0.1-4.4,0.3c-1.5,0.2-3,0.6-4.5,1V333.5z M413.4,341.1c1.2-1.2,2.1-2.5,2.6-4
		c0.5-1.5,0.8-3.9,0.8-7.2v-40.8c0-3.3-0.3-5.7-0.8-7.1c-0.5-1.5-1.4-2.8-2.6-3.9h20.5c5.5,0,10.1,0.6,13.7,1.7
		c3.6,1.2,6.9,3.1,10,5.7c3.4,2.9,6,6.3,7.7,10.2c1.7,3.9,2.6,8.2,2.6,13c0,4.3-0.7,8.4-1.9,12c-1.3,3.7-3.2,7.1-5.8,10.1
		c-3.1,3.6-7,6.3-11.5,7.9c-4.5,1.6-10.4,2.5-17.6,2.5H413.4z"/>
</g>
<rect x="39.4" y="360.8" fill="#873299" width="403.9" height="8.7"/>
<g>
	<defs>
		<rect id="SVGID_3_" x="0" y="0" width="482.6" height="498.9"/>
	</defs>
	<clipPath id="SVGID_4_">
		<use xlink:href="#SVGID_3_"  overflow="visible"/>
	</clipPath>
	<path clip-path="url(#SVGID_4_)" d="M241.3,416.9c-3.4,1.9-6.7,2.9-9.8,3c-2.2,0-4.2-0.4-6-1.3c-1.8-0.9-3.3-2.1-4.5-3.6
		c-1.2-1.5-2.1-3.2-2.8-5.1c-0.6-1.9-1-3.9-1-5.9c0.1-2.5,0.5-4.8,1.5-6.9s2.3-3.9,4.1-5.2c1.8-1.3,4.1-2,6.6-2.1
		c3.6,0,7.1,1.1,10.3,3.3v-6.5c-3.5-1.1-6.8-1.6-9.7-1.6c-2.9,0-5.5,0.5-7.9,1.5c-2.3,1-4.4,2.4-6,4.2c-1.7,1.8-2.9,4-3.8,6.4
		c-0.9,2.5-1.3,5.2-1.3,8.1l0.1,1.4v0c0.2,4.1,1.3,7.4,3.2,10.1c1.9,2.7,4.3,4.7,7.2,6c2.9,1.3,6,2,9.3,2c3.1,0,6.1-0.6,8.9-1.7
		l1.5-3.5V416.9z M241.3,445.5l-1.3-3.7c-0.5,0.3-1.2,0.6-2.1,0.8c-0.9,0.1-2.2,0.2-3.6,0.2h-0.8c0.8,0.7,1.5,1.5,2,2.3
		c0.6,0.8,1.2,2.1,1.8,3.6l4.1,10.6V445.5z M160.4,469.3l-1.7-7.1c2.1,1.5,4.1,2.7,6,3.4c2,0.7,3.9,1.1,5.8,1.1
		c2.4,0,4.4-0.6,5.9-1.7c1.5-1.2,2.2-2.7,2.2-4.5c0-0.5-0.1-1.1-0.2-1.6c-0.1-0.5-0.4-1-0.7-1.5c-0.7-1.1-2.8-2.6-6.5-4.6
		c-0.9-0.5-1.7-0.9-2.2-1.2c-3.5-1.9-5.8-3.7-7.1-5.3c-1.3-1.6-1.9-3.5-1.9-5.8c0-3.2,1.2-5.7,3.5-7.6c2.3-1.9,5.6-2.8,9.7-2.8
		c1.2,0,2.5,0.1,3.9,0.3c1.4,0.2,3,0.4,4.6,0.8v6.6c-1.5-1.2-3-2.1-4.4-2.7c-1.5-0.6-3-0.9-4.6-0.9c-2,0-3.7,0.5-4.9,1.4
		c-1.2,0.9-1.9,2.2-1.9,3.8c0,1.4,0.5,2.6,1.5,3.6c1,1,3.2,2.5,6.6,4.2c0.2,0.1,0.5,0.2,0.9,0.4c2.9,1.5,5,2.8,6.4,4
		c1.1,0.9,1.9,2,2.5,3.3c0.6,1.3,0.9,2.7,0.9,4.2c0,3.4-1.4,6.2-4.2,8.5c-2.8,2.3-6.3,3.5-10.5,3.5c-1.3,0-2.8-0.2-4.4-0.5
		C163.9,470.5,162.2,470,160.4,469.3L160.4,469.3z M194,452h13.3c-0.1-1.9-0.8-3.5-2-4.7c-1.2-1.2-2.7-1.9-4.5-1.9
		c-1.9,0-3.5,0.6-4.7,1.8C195,448.3,194.2,449.9,194,452z M193.6,455.8c0.1,3.4,1.1,6.2,3,8.2c1.9,2,4.3,3,7.3,3
		c1.3,0,2.8-0.2,4.2-0.7c1.5-0.5,3.1-1.2,4.8-2.2l-2.8,5.3c-1.5,0.6-2.9,1.1-4.1,1.4c-1.3,0.3-2.5,0.4-3.6,0.4
		c-4.2,0-7.6-1.4-10.2-4.1c-2.7-2.8-4-6.3-4-10.5c0-4.4,1.2-7.9,3.7-10.7c2.5-2.8,5.6-4.2,9.5-4.2c3.5,0,6.3,1.3,8.4,3.8
		c2.1,2.6,3.1,6,3.2,10.4H193.6z M231.5,447.9c-0.4-0.3-0.8-0.5-1.2-0.7c-0.4-0.1-0.9-0.2-1.4-0.2c-1.8,0-3.2,0.7-4.1,2
		c-0.9,1.3-1.4,3.3-1.4,5.8v10.2c0,1.2,0.1,2.2,0.4,3c0.3,0.8,0.7,1.5,1.3,2.1h-8.4c0.6-0.6,1.1-1.3,1.4-2.1c0.3-0.8,0.4-1.8,0.4-3
		V448c0-1.2-0.1-2.3-0.4-3.1c-0.3-0.8-0.7-1.5-1.4-2.1h0.6c0.8,0,1.7-0.1,2.7-0.1c0.9-0.1,2-0.3,3.1-0.5l0.4,4.4
		c0.7-1.5,1.6-2.6,2.6-3.3c1-0.7,2.1-1.1,3.3-1.1l0.9,0.1c0.3,0,0.7,0.1,1.2,0.2V447.9z M11.3,418.1v-28H6.8c-3,0-5.2,0.8-6.6,2.2H0
		l1.9-6.8h0.2c0.5,0.3,1.3,0.5,2.4,0.5h20.6c1.4,0,2.3-0.2,2.8-0.5h0.2l-1.7,6.8h-0.2c-0.3-0.9-0.8-1.5-1.6-1.8
		c-0.7-0.3-1.7-0.5-2.9-0.5h-4.9v27.8c0,1.2,0.2,2.3,0.5,3.2c0.4,0.9,1.1,1.8,2.3,2.5v0.2H8.9v-0.2
		C10.5,422.9,11.3,421.1,11.3,418.1z M30.3,418.7v-28.2c0-1.1-0.1-2-0.4-2.7c-0.3-0.7-0.8-1.3-1.7-1.8v-0.1h4.1c1.3,0,2.2-0.3,2.7-1
		h0.1v15.3c0.8-1.2,2-2.1,3.5-2.7c1.5-0.6,3-0.9,4.5-0.9c6.1,0,9.1,3.4,9.1,10.2v11.7c0,1.6,0.1,2.7,0.4,3.3
		c0.2,0.7,0.8,1.2,1.7,1.8v0.2h-8.9v-0.2c0.8-0.4,1.3-1,1.6-1.7c0.3-0.7,0.4-1.6,0.4-2.7v-10.3c0-5.6-2-8.4-6.1-8.4h-0.1
		c-2.2,0-3.7,0.6-4.7,1.7c-1,1.1-1.5,3.1-1.5,5.7v10.7c0,1.4,0.1,2.5,0.4,3.2c0.2,0.7,0.8,1.3,1.7,1.8v0.2h-9v-0.2
		c1.4-0.7,2.1-2,2.1-4.1V418.7z M57,410.3c0-2.3,0.5-4.5,1.5-6.6c1-2.1,2.5-3.8,4.6-5.2c2-1.3,4.5-2,7.5-2.1c2.2,0,4.2,0.5,6,1.6
		c1.8,1.1,3.3,2.6,4.4,4.6c1.1,2,1.6,4.3,1.6,6.9H62.8c0,1.6,0.3,3.3,0.9,4.9c0.6,1.6,1.7,3,3.1,4.1c1.4,1.1,3.2,1.8,5.4,2
		c0.5,0,1,0,1.3,0.1c1.5-0.1,3-0.3,4.6-0.8c1.6-0.5,3-1.2,4.2-2.2h0.1l-2.6,5.3c-2.5,1-5,1.5-7.4,1.5c-2.7,0-5.2-0.5-7.5-1.6
		c-2.3-1.1-4.3-2.7-5.7-4.9C57.8,415.8,57.1,413.3,57,410.3 M63,406.2h13.9c-0.2-1.9-0.9-3.4-2.2-4.4c-1.3-1-2.8-1.5-4.6-1.5
		c-1.1,0-2.2,0.2-3.2,0.7c-1,0.5-1.9,1.2-2.6,2C63.6,403.9,63.2,405,63,406.2 M99.7,406.5l-0.1-1.4c0-2.9,0.4-5.6,1.3-8.1
		c0.9-2.5,2.1-4.6,3.8-6.4c1.7-1.8,3.7-3.3,6-4.2c2.3-1,5-1.5,7.9-1.5c2.9,0,6.1,0.5,9.7,1.6v6.5c-3.2-2.2-6.7-3.3-10.3-3.3
		c-2.6,0.1-4.8,0.8-6.7,2.1c-1.8,1.3-3.2,3.1-4.1,5.2s-1.4,4.5-1.5,6.9c0,2,0.4,4,1,5.9c0.7,1.9,1.6,3.6,2.8,5.1
		c1.2,1.5,2.7,2.7,4.5,3.6c1.8,0.9,3.8,1.3,6,1.3c3.5-0.1,7.1-1.4,11-3.7h0.1l-2.8,6.7c-2.8,1.2-5.8,1.7-8.9,1.7
		c-3.3,0-6.4-0.7-9.3-2c-2.9-1.3-5.3-3.3-7.2-6C101,414,99.9,410.6,99.7,406.5L99.7,406.5z M135.6,418v-25.9c0-3.3-0.8-5.3-2.4-6
		v-0.1h13c1.6,0,3.2,0.2,4.7,0.6c1.5,0.4,2.8,1,3.9,1.8c1.1,0.8,2,1.8,2.7,3.1c0.7,1.3,1.1,2.8,1.1,4.5c0,2.2-0.6,4.1-1.7,5.7
		c-1.1,1.6-2.4,2.8-3.9,3.6c-1.5,0.8-3,1.4-4.3,1.5c-0.5,0-1.2,0.1-2.1,0.2c-1.5-0.1-2.8-0.4-3.9-1c1.5,0,3-0.4,4.5-1.1
		c1.5-0.7,2.7-1.8,3.7-3.1c1-1.3,1.4-2.9,1.4-4.7c0-2.4-0.7-4.2-2.1-5.3c-1.4-1.1-3.2-1.7-5.5-1.7c-1.3,0-2.5,0.1-3.7,0.4v27.4
		c0,1.4,0.2,2.6,0.6,3.5c0.4,0.9,1.1,1.6,2.1,2.3l0.1,0.2h-10.7v-0.2C134.8,422.8,135.6,420.9,135.6,418 M163,417.8v-26.5
		c0-2.9-0.8-4.7-2.4-5.3v-0.1h13.3c4.3,0,7.9,0.8,10.9,2.5c3,1.7,5.2,3.9,6.7,6.9c1.5,2.9,2.2,6.2,2.2,10c-0.1,3.2-0.9,6.2-2.4,9
		c-1.5,2.8-3.8,5.1-6.8,6.9c-3.1,1.8-6.8,2.6-11.3,2.6h-12.6v-0.2C162.2,422.5,163,420.6,163,417.8 M168.4,419.2
		c0.8,0.1,2,0.3,3.8,0.4c2.5,0,4.9-0.5,7.1-1.4c2.3-0.9,4.2-2.3,5.7-4.3c1.5-2,2.4-4.5,2.5-7.5l0-0.7l0-0.7c0-3.8-0.7-6.9-2.1-9.1
		c-1.4-2.2-3.2-3.8-5.3-4.6c-2.1-0.8-4.4-1.3-6.8-1.3c-1.5,0-3.1,0.2-4.9,0.6V419.2z"/>
	<path clip-path="url(#SVGID_4_)" d="M241.3,416.9c0.4-0.2,0.8-0.4,1.2-0.7h0.1l-1.3,3.2V416.9z M241.3,445.5l6.5,18.2l6.1-14.9
		c0.3-0.7,0.5-1.3,0.6-1.7c0.1-0.4,0.2-0.9,0.2-1.2c0-0.5-0.1-0.9-0.4-1.4c-0.2-0.4-0.7-1-1.3-1.6h7.4L249,471.2
		c-1.3-0.4-2.4-1.2-3.3-2.2c-0.9-1-1.8-2.8-2.8-5.4l-1.6-4.2V445.5z M261.7,435.5c0-0.9,0.3-1.8,0.9-2.5c0.6-0.7,1.4-1,2.2-1
		c0.9,0,1.6,0.4,2.2,1c0.6,0.7,0.9,1.5,0.9,2.5c0,1-0.3,1.8-0.9,2.5c-0.6,0.7-1.3,1-2.2,1c-0.9,0-1.6-0.3-2.2-1
		C262.1,437.2,261.7,436.4,261.7,435.5 M267.5,465.1c0,1.2,0.1,2.2,0.4,3c0.3,0.8,0.7,1.5,1.4,2.1H261c0.6-0.6,1.1-1.3,1.4-2.1
		c0.3-0.8,0.4-1.8,0.4-3V448c0-1.2-0.1-2.3-0.4-3.1c-0.3-0.8-0.7-1.5-1.4-2.2c1.5,0,2.7-0.1,3.8-0.2c1.1-0.1,2-0.2,2.8-0.4V465.1z
		 M293.4,448.6c-1.3-0.9-2.5-1.5-3.6-1.9c-1.1-0.4-2.2-0.7-3.2-0.7c-2.5,0-4.5,0.9-6,2.7c-1.5,1.8-2.3,4.1-2.3,7
		c0,3.2,0.9,5.8,2.8,7.9c1.9,2.1,4.3,3.1,7.2,3.1c1.2,0,2.5-0.2,3.8-0.6c1.3-0.4,2.8-1.1,4.5-2l-2.8,5.2c-1,0.7-2,1.2-3,1.5
		c-1,0.3-2.2,0.5-3.4,0.5c-4.3,0-7.9-1.4-10.7-4.1c-2.8-2.7-4.2-6.2-4.2-10.3c0-4.2,1.4-7.8,4.1-10.7c2.8-2.9,6.2-4.3,10.2-4.3
		c0.6,0,1.5,0.1,2.6,0.2c1.1,0.1,2.4,0.3,3.9,0.5V448.6z M305,452h13.3c-0.1-1.9-0.7-3.5-2-4.7c-1.2-1.2-2.7-1.8-4.5-1.8
		c-1.9,0-3.5,0.6-4.7,1.8C305.9,448.3,305.2,449.9,305,452 M304.6,455.8c0.1,3.4,1.1,6.1,3,8.2c1.8,2,4.3,3,7.3,3
		c1.3,0,2.7-0.2,4.2-0.7c1.5-0.5,3.1-1.2,4.8-2.2l-2.8,5.3c-1.5,0.6-2.9,1.1-4.2,1.4c-1.3,0.3-2.5,0.4-3.6,0.4
		c-4.1,0-7.6-1.4-10.2-4.1c-2.7-2.8-4-6.3-4-10.5c0-4.4,1.2-7.9,3.7-10.7c2.5-2.8,5.6-4.2,9.5-4.2c3.5,0,6.3,1.3,8.4,3.8
		c2.1,2.6,3.2,6,3.2,10.4H304.6z M243.7,410.3c0-2.3,0.5-4.5,1.5-6.6c1-2.1,2.5-3.8,4.6-5.2c2-1.3,4.5-2,7.5-2.1
		c2.2,0,4.2,0.5,6,1.6c1.8,1.1,3.3,2.6,4.3,4.6c1.1,2,1.6,4.3,1.6,6.9h-19.7c0,1.6,0.3,3.3,0.9,4.9c0.6,1.6,1.7,3,3.1,4.1
		c1.4,1.1,3.2,1.8,5.4,2c0.5,0,1,0,1.3,0.1c1.5-0.1,3-0.3,4.6-0.8c1.6-0.5,3-1.2,4.2-2.2h0.1l-2.6,5.3c-2.5,1-5,1.5-7.4,1.5
		c-2.7,0-5.2-0.5-7.5-1.6c-2.3-1.1-4.2-2.7-5.7-4.9C244.5,415.8,243.7,413.3,243.7,410.3 M249.7,406.2h13.9
		c-0.2-1.9-0.9-3.4-2.2-4.4c-1.3-1-2.8-1.5-4.5-1.5c-1.1,0-2.2,0.2-3.2,0.7c-1,0.5-1.9,1.2-2.6,2.1
		C250.3,403.9,249.8,405,249.7,406.2 M274.2,419v-16.5c0-1.5-0.1-2.6-0.4-3.3c-0.2-0.7-0.8-1.3-1.6-1.8v-0.2h1.4
		c0.5,0,1.3-0.1,2.2-0.1c0.9,0,1.6-0.1,2-0.2c0.4-0.1,0.8-0.2,1-0.4h0.2v4.3c0.8-1.7,1.9-2.8,3.2-3.4c1.4-0.5,3-0.8,5-0.8v5.4
		c-0.5-0.7-1.4-1-2.7-1c-0.6,0-1.3,0.1-2.2,0.4c-2.3,0.8-3.4,3.2-3.4,7.3v10.2c0,1.2,0.1,2.1,0.4,2.8c0.3,0.7,0.8,1.3,1.7,1.8v0.2
		h-9v-0.2c0.9-0.5,1.4-1.1,1.6-1.8C274.1,421,274.2,420.1,274.2,419 M292.1,415.2V401h-3.6v-2.1c4.3-0.6,6.4-4,6.4-10.2h2.1v8.5h4
		c1.7,0,2.8-0.1,3.2-0.3h0.1v5.3H304c-0.6-0.8-1.6-1.2-3.1-1.2h-4.1v11.8c0,1.5,0.1,2.9,0.4,4.1c0.3,1.2,0.9,2.2,1.8,2.9
		c0.6,0.4,1.5,0.6,2.6,0.7c1.1-0.1,1.9-0.4,2.4-0.6l-2.8,4.1c-0.5,0.1-1.2,0.1-2.2,0.1c-2.4,0-4.2-0.9-5.3-2.6
		C292.6,420,292.1,417.8,292.1,415.2L292.1,415.2z M310.6,386.6c0.9,0,1.7,0.4,2.4,1.1c0.7,0.7,1,1.5,1,2.5c0,1-0.4,1.8-1,2.6
		c-0.7,0.7-1.5,1.1-2.4,1.1c-0.9,0-1.7-0.4-2.3-1c-0.6-0.7-1-1.6-1-2.6c0-0.6,0.1-1.2,0.4-1.8c0.3-0.5,0.7-1,1.2-1.3
		C309.4,386.8,310,386.6,310.6,386.6 M308.4,419v-16.9c0-1.1-0.1-2.1-0.3-2.8c-0.2-0.7-0.8-1.3-1.7-1.8v-0.2c1.3,0,2.3,0,2.8,0.1
		c1.2-0.1,2-0.2,2.6-0.3c0.5-0.1,1-0.4,1.3-0.7h0.2v21.5c0,1.6,0.1,2.8,0.3,3.7c0.2,0.8,0.8,1.5,1.8,2l-0.1,0.2h-8.9v-0.2
		c0.9-0.5,1.4-1.1,1.6-1.8C308.3,421,308.4,420.1,308.4,419 M320.9,418.3V401h-2.6l2.6-3.8v-3.8c0-1.9,0.6-3.5,1.7-4.8
		c1.1-1.3,2.6-2.3,4.2-2.9c1.7-0.6,3.4-0.9,5.1-0.9c0.8,0,2.2,0.1,4.2,0.2l-3.7,4.4c-1-0.6-2-0.9-3.1-0.9c-1.2,0-2.1,0.4-2.7,1.1
		c-0.5,0.8-0.8,1.9-0.8,3.5v4.1h6.2l1-0.3h0.2v5.1H333c-0.3-0.6-1.1-0.9-2.4-0.9h-4.7v15.3c0,1.4,0,2.6,0.1,3.4
		c0.1,0.9,0.3,1.7,0.6,2.3c0.3,0.6,0.8,1.2,1.5,1.6v0.1H319v-0.2c0.8-0.4,1.3-1,1.6-1.6c0.3-0.7,0.4-1.5,0.4-2.4V418.3z
		 M337.4,386.6c0.9,0,1.7,0.4,2.4,1.1c0.7,0.7,1,1.5,1,2.5c0,1-0.3,1.8-1,2.6c-0.7,0.7-1.5,1.1-2.4,1.1c-0.9,0-1.7-0.4-2.3-1
		c-0.7-0.7-1-1.6-1-2.6c0-0.6,0.1-1.2,0.4-1.8c0.3-0.5,0.7-1,1.2-1.3C336.2,386.8,336.8,386.6,337.4,386.6 M335.2,419v-16.9
		c0-1.1-0.1-2.1-0.3-2.8c-0.2-0.7-0.8-1.3-1.7-1.8v-0.2c1.3,0,2.3,0,2.8,0.1c1.2-0.1,2-0.2,2.6-0.3c0.5-0.1,1-0.4,1.3-0.7h0.2v21.5
		c0,1.6,0.1,2.8,0.3,3.7c0.2,0.8,0.8,1.5,1.7,2l-0.1,0.2h-8.9v-0.2c0.8-0.5,1.4-1.1,1.6-1.8C335.1,421,335.2,420.1,335.2,419
		 M345.5,411.1c0-2.4,0.4-4.5,1.2-6.4c0.8-1.9,2-3.4,3.4-4.6c1.4-1.2,3.1-2.1,4.9-2.7c1.9-0.6,3.8-0.9,5.9-0.9c2,0,3.9,0.2,5.7,0.7
		v5.9h-0.2c-1.5-1.8-3.7-2.7-6.5-2.7c-1.6,0-3.1,0.4-4.4,1.1c-1.4,0.7-2.5,1.9-3.3,3.4c-0.8,1.5-1.2,3.2-1.2,5.3
		c0,1.9,0.5,3.6,1.5,5.3c1,1.6,2.3,2.9,4,3.8c1.7,0.9,3.5,1.4,5.4,1.5c3-0.1,5.6-1.1,8-2.8h0.2l-2.8,5.5c-2.2,0.7-4.4,1-6.7,1
		c-2.8,0-5.4-0.6-7.7-1.7c-2.3-1.1-4.1-2.7-5.5-4.7C346.1,416,345.5,413.7,345.5,411.1L345.5,411.1z M369.9,416.5
		c0-1.7,0.4-3.1,1.3-4.2c0.8-1.1,2-2,3.5-2.7c0.7-0.3,2.1-0.8,4.1-1.2c2-0.5,3.3-0.8,4.1-1.1c0.7-0.2,1.4-0.6,2-1.1
		c0.2-0.1,0.4-0.5,0.6-0.9c0.2-0.4,0.3-0.9,0.3-1.5c0-1.2-0.5-2-1.7-2.6c-1.1-0.6-2.3-0.9-3.5-0.9c-2.1,0-4.6,0.7-7.2,2.2l3.5-5.7
		c0.3,0,0.8-0.1,1.7-0.2c0.9-0.1,1.5-0.2,1.9-0.2c1.9,0,3.6,0.3,5.1,0.9c1.5,0.6,2.8,1.6,3.7,2.9c0.9,1.3,1.4,3,1.4,5v10
		c0,1.8,0.3,3.1,0.9,3.9c0.6,0.8,1.8,1.2,3.6,1.3l-2.4,4c-2.4-0.2-4.2-0.8-5.3-1.8c-1.1-0.9-1.7-2.4-1.7-4.4v-9
		c-1.1,0.6-2.6,1.2-4.7,1.7c-2.1,0.5-3.6,1.1-4.5,1.6c-0.9,0.6-1.4,1.7-1.4,3.2c0,1.5,0.5,2.6,1.6,3.4c1,0.8,2.4,1.2,4.1,1.3
		c1.4-0.1,2.7-0.4,4.1-0.7l-3.2,4.2c-1.1,0.1-2,0.2-2.7,0.2c-1.9,0-3.5-0.4-4.9-1.1c-1.4-0.7-2.5-1.7-3.2-2.9
		C370.3,419.3,369.9,417.9,369.9,416.5 M399.4,415.2V401h-3.6v-2.1c4.2-0.6,6.4-4,6.4-10.2h2.1v8.5h4c1.7,0,2.7-0.1,3.2-0.3h0.1v5.3
		h-0.1c-0.6-0.8-1.6-1.2-3.1-1.2h-4.1v11.8c0,1.5,0.1,2.9,0.4,4.1c0.2,1.2,0.9,2.2,1.8,2.9c0.6,0.4,1.5,0.6,2.6,0.7
		c1.1-0.1,1.9-0.4,2.4-0.6l-2.8,4.1c-0.5,0.1-1.2,0.1-2.2,0.1c-2.4,0-4.2-0.9-5.3-2.6C400,420,399.4,417.8,399.4,415.2L399.4,415.2z
		 M418,386.6c0.9,0,1.7,0.4,2.4,1.1c0.7,0.7,1,1.5,1,2.5c0,1-0.3,1.8-1,2.6c-0.7,0.7-1.5,1.1-2.4,1.1c-0.9,0-1.7-0.4-2.4-1
		c-0.6-0.7-1-1.6-1-2.6c0-0.6,0.1-1.2,0.4-1.8c0.3-0.5,0.7-1,1.2-1.3C416.8,386.8,417.4,386.6,418,386.6 M415.8,419v-16.9
		c0-1.1-0.1-2.1-0.3-2.8c-0.2-0.7-0.8-1.3-1.7-1.8v-0.2c1.3,0,2.3,0,2.8,0.1c1.2-0.1,2-0.2,2.6-0.3c0.5-0.1,1-0.4,1.3-0.7h0.2v21.5
		c0,1.6,0.1,2.8,0.3,3.7c0.2,0.8,0.8,1.5,1.7,2l-0.1,0.2h-8.9v-0.2c0.8-0.5,1.4-1.1,1.6-1.8C415.6,421,415.8,420.1,415.8,419
		 M426.1,410.6c0-2.4,0.6-4.6,1.6-6.7c1-2.1,2.6-3.8,4.7-5.2c2.1-1.3,4.7-2,7.9-2.1c2.3,0,4.5,0.6,6.5,1.7c2.1,1.1,3.7,2.7,5,4.8
		c1.3,2.1,1.9,4.5,1.9,7.2c0,2-0.4,3.8-1.1,5.5c-0.7,1.7-1.8,3.2-3.1,4.5c-1.3,1.3-2.8,2.3-4.5,3c-1.7,0.7-3.4,1.1-5.3,1.1
		c-2.1,0-4-0.4-5.8-1.1c-1.7-0.8-3.2-1.8-4.3-3.1c-1.2-1.3-2-2.8-2.6-4.5C426.4,414,426.1,412.3,426.1,410.6L426.1,410.6z
		 M431.6,409.8c0,3,0.8,5.5,2.4,7.7c1.6,2.1,3.5,3.2,5.8,3.3l0.4-0.1c1.8-0.1,3.2-0.5,4.5-1.5c1.2-0.9,2.1-2.1,2.7-3.5
		c0.6-1.4,0.9-2.9,0.9-4.6c0-1.4-0.2-2.7-0.6-4c-0.4-1.3-1-2.5-1.7-3.5c-0.7-1-1.7-1.8-2.7-2.4c-1.1-0.6-2.2-0.9-3.5-0.9
		c-1.2,0.1-2.3,0.4-3.5,0.9c-1.2,0.6-2.2,1.6-3.1,3C432.1,405.6,431.6,407.5,431.6,409.8 M458.5,418.5v-16.5c0-1-0.1-2-0.4-2.7
		c-0.3-0.8-0.8-1.4-1.7-1.9v-0.2c1.6,0,2.7,0,3.3,0.1c1.6-0.1,2.8-0.4,3.5-0.8h0.1v4.5c0.6-1.1,1.5-2.1,2.8-3c1.3-1,2.9-1.4,4.7-1.4
		c6.4,0.1,9.6,3.4,9.6,9.9v11.2l-0.1,1c0.1,1.2,0.3,2.3,0.5,3c0.3,0.7,0.8,1.4,1.7,1.8v0.2h-8.9v-0.2c0.7-0.4,1.1-0.9,1.4-1.3
		c0.3-0.5,0.4-1,0.5-1.5c0.1-0.5,0.1-1.3,0.1-2.4v-8.8c0-6.1-2.2-9.1-6.5-9.1c-2.2,0-3.8,0.6-4.6,1.9c-0.8,1.2-1.2,3.1-1.2,5.4v11.2
		c0,1.3,0.1,2.3,0.3,2.9c0.2,0.6,0.8,1.2,1.8,1.8v0.2h-8.9v-0.2c0.9-0.6,1.4-1.3,1.7-2C458.4,420.7,458.5,419.8,458.5,418.5"/>
	<path clip-path="url(#SVGID_4_)" d="M189.2,486.6c-0.7-0.5-1.5-0.7-2.4-0.7c-0.8,0-1.5,0.2-2,0.5c-0.6,0.3-1,0.7-1.4,1.3
		c-0.4,0.5-0.6,1.1-0.8,1.8c-0.2,0.7-0.3,1.4-0.3,2.1c0,0.8,0.1,1.6,0.3,2.3c0.2,0.7,0.4,1.3,0.8,1.8c0.4,0.5,0.8,1,1.4,1.3
		c0.6,0.3,1.2,0.5,2,0.5c0.6,0,1.1-0.1,1.5-0.3s0.8-0.5,1.2-0.8c0.3-0.4,0.6-0.8,0.8-1.3c0.2-0.5,0.3-1,0.3-1.6h1.7
		c-0.2,1.8-0.7,3.1-1.7,4.1c-1,1-2.3,1.5-4,1.5c-1,0-1.9-0.2-2.6-0.6c-0.8-0.4-1.4-0.9-1.9-1.5c-0.5-0.7-0.9-1.4-1.1-2.3
		c-0.2-0.9-0.4-1.8-0.4-2.8s0.1-2,0.4-2.9c0.3-0.9,0.7-1.7,1.2-2.3c0.5-0.7,1.2-1.2,2-1.6c0.8-0.4,1.7-0.6,2.7-0.6
		c0.7,0,1.3,0.1,2,0.3c0.6,0.2,1.1,0.5,1.6,0.9c0.5,0.4,0.9,0.8,1.2,1.4c0.3,0.6,0.5,1.2,0.6,2h-1.7
		C190.3,487.8,189.9,487.1,189.2,486.6"/>
	<path clip-path="url(#SVGID_4_)" d="M194.1,491.4c0.2-0.7,0.5-1.2,0.9-1.7c0.4-0.5,0.9-0.9,1.5-1.1c0.6-0.3,1.2-0.4,2-0.4
		c0.8,0,1.4,0.1,2,0.4c0.6,0.3,1,0.7,1.4,1.1c0.4,0.5,0.7,1,0.9,1.7c0.2,0.7,0.3,1.3,0.3,2.1c0,0.7-0.1,1.5-0.3,2.1
		c-0.2,0.6-0.5,1.2-0.9,1.7c-0.4,0.5-0.9,0.9-1.4,1.1c-0.6,0.3-1.2,0.4-2,0.4c-0.7,0-1.4-0.1-2-0.4c-0.6-0.3-1.1-0.7-1.5-1.1
		c-0.4-0.5-0.7-1-0.9-1.7c-0.2-0.6-0.3-1.3-0.3-2.1C193.8,492.8,193.9,492.1,194.1,491.4 M195.7,495.2c0.1,0.5,0.4,0.9,0.6,1.2
		c0.3,0.3,0.6,0.6,0.9,0.7c0.4,0.2,0.7,0.3,1.2,0.3c0.4,0,0.8-0.1,1.2-0.3c0.4-0.2,0.7-0.4,0.9-0.7c0.3-0.3,0.5-0.7,0.6-1.2
		c0.1-0.5,0.2-1,0.2-1.6c0-0.6-0.1-1.2-0.2-1.6c-0.1-0.5-0.4-0.9-0.6-1.2c-0.3-0.3-0.6-0.6-0.9-0.7c-0.4-0.2-0.7-0.3-1.2-0.3
		c-0.4,0-0.8,0.1-1.2,0.3c-0.4,0.2-0.7,0.4-0.9,0.7c-0.3,0.3-0.5,0.7-0.6,1.2c-0.1,0.5-0.2,1-0.2,1.6
		C195.4,494.1,195.5,494.7,195.7,495.2"/>
</g>
<rect x="204.9" y="484.6" width="1.6" height="14"/>
<rect x="209" y="484.6" width="1.6" height="14"/>
<g>
	<defs>
		<rect id="SVGID_5_" x="0" y="0" width="482.6" height="498.9"/>
	</defs>
	<clipPath id="SVGID_6_">
		<use xlink:href="#SVGID_5_"  overflow="visible"/>
	</clipPath>
	<path clip-path="url(#SVGID_6_)" d="M219.7,497.9c-0.7,0.6-1.6,0.9-2.7,0.9c-0.8,0-1.4-0.1-2-0.4c-0.6-0.3-1-0.6-1.4-1.1
		c-0.4-0.5-0.7-1-0.8-1.7c-0.2-0.7-0.3-1.4-0.3-2.1c0-0.8,0.1-1.5,0.3-2.1c0.2-0.6,0.5-1.2,0.9-1.7c0.4-0.5,0.9-0.8,1.4-1.1
		c0.6-0.3,1.2-0.4,1.8-0.4c0.9,0,1.5,0.2,2.1,0.6c0.6,0.4,1,0.8,1.3,1.4c0.3,0.6,0.6,1.2,0.7,1.9c0.1,0.7,0.2,1.3,0.2,1.9h-7.1
		c0,0.4,0,0.9,0.1,1.3s0.3,0.7,0.5,1.1c0.2,0.3,0.6,0.5,0.9,0.7c0.4,0.2,0.8,0.3,1.3,0.3c0.7,0,1.2-0.2,1.6-0.5
		c0.4-0.3,0.7-0.8,0.8-1.5h1.5C220.8,496.5,220.4,497.4,219.7,497.9 M219.3,491.4l-0.6-0.9l-0.8-0.6c-0.3-0.1-0.7-0.2-1.1-0.2
		c-0.4,0-0.8,0.1-1.1,0.2l-0.8,0.6l-0.6,0.9c-0.1,0.3-0.2,0.7-0.2,1.1h5.5C219.5,492.2,219.4,491.8,219.3,491.4"/>
	<path clip-path="url(#SVGID_6_)" d="M228.5,490.2c-0.4-0.4-0.9-0.5-1.6-0.5c-0.6,0-1,0.1-1.4,0.3s-0.7,0.5-0.9,0.9
		c-0.2,0.4-0.4,0.8-0.5,1.3c-0.1,0.5-0.1,1-0.1,1.5c0,0.5,0.1,0.9,0.2,1.4c0.1,0.4,0.3,0.8,0.5,1.2c0.2,0.3,0.5,0.6,0.9,0.8
		c0.4,0.2,0.8,0.3,1.3,0.3c0.8,0,1.4-0.2,1.8-0.7c0.4-0.4,0.7-1,0.8-1.8h1.6c-0.2,1.3-0.6,2.2-1.3,2.9c-0.7,0.7-1.7,1-2.9,1
		c-0.7,0-1.4-0.1-1.9-0.4c-0.5-0.3-1-0.6-1.4-1.1c-0.4-0.4-0.7-1-0.8-1.6c-0.2-0.6-0.3-1.3-0.3-2.1s0.1-1.5,0.3-2.1
		c0.2-0.7,0.5-1.2,0.8-1.7c0.4-0.5,0.9-0.9,1.4-1.2c0.6-0.3,1.2-0.4,2-0.4c0.5,0,1,0.1,1.5,0.2c0.5,0.1,0.9,0.4,1.2,0.6
		c0.4,0.3,0.7,0.7,0.9,1.1c0.2,0.4,0.4,1,0.4,1.6h-1.6C229.1,491.1,228.9,490.6,228.5,490.2"/>
	<path clip-path="url(#SVGID_6_)" d="M236.7,488.4v1.5h-1.9v6.3l0,0.5l0.2,0.3l0.4,0.1l0.6,0h0.7v1.5h-1.2c-0.4,0-0.7,0-1-0.1
		l-0.7-0.3l-0.4-0.7c-0.1-0.3-0.1-0.7-0.1-1.1v-6.5h-1.6v-1.5h1.6v-3h1.6v3H236.7z"/>
</g>
<path d="M238.5,498.6h1.6v-10.1h-1.6V498.6z M238.5,486.6h1.6v-2h-1.6V486.6z"/>
<polygon points="248.6,488.4 246,496.9 246,496.9 243.3,488.4 241.6,488.4 245.1,498.6 246.8,498.6 250.2,488.4 "/>
<g>
	<defs>
		<rect id="SVGID_7_" x="0" y="0" width="482.6" height="498.9"/>
	</defs>
	<clipPath id="SVGID_8_">
		<use xlink:href="#SVGID_7_"  overflow="visible"/>
	</clipPath>
	<path clip-path="url(#SVGID_8_)" d="M258.4,497.9c-0.7,0.6-1.6,0.9-2.7,0.9c-0.8,0-1.4-0.1-2-0.4c-0.6-0.3-1-0.6-1.4-1.1
		c-0.4-0.5-0.7-1-0.8-1.7c-0.2-0.7-0.3-1.4-0.3-2.1c0-0.8,0.1-1.5,0.3-2.1s0.5-1.2,0.9-1.7c0.4-0.5,0.9-0.8,1.4-1.1
		c0.5-0.3,1.1-0.4,1.8-0.4c0.8,0,1.5,0.2,2.1,0.6c0.6,0.4,1,0.8,1.3,1.4c0.3,0.6,0.6,1.2,0.7,1.9c0.1,0.7,0.2,1.3,0.1,1.9h-7.1
		c0,0.4,0,0.9,0.1,1.3c0.1,0.4,0.3,0.7,0.5,1.1c0.2,0.3,0.6,0.5,0.9,0.7c0.4,0.2,0.8,0.3,1.3,0.3c0.7,0,1.2-0.2,1.6-0.5
		c0.4-0.3,0.7-0.8,0.8-1.5h1.5C259.5,496.5,259.1,497.4,258.4,497.9 M258,491.4l-0.6-0.9l-0.8-0.6c-0.3-0.1-0.7-0.2-1.1-0.2
		c-0.4,0-0.8,0.1-1.1,0.2l-0.8,0.6l-0.5,0.9c-0.1,0.3-0.2,0.7-0.2,1.1h5.5C258.2,492.2,258.1,491.8,258,491.4"/>
</g>
<polygon points="277.5,484.6 273.4,496.4 269.3,484.6 266.9,484.6 266.9,498.6 268.5,498.6 268.5,486.9 268.5,486.9 272.6,498.6 
	274.1,498.6 278.2,486.9 278.2,486.9 278.2,498.6 279.9,498.6 279.9,484.6 "/>
<g>
	<path d="M289.8,498.8c-0.4,0-0.7-0.1-1-0.4c-0.2-0.2-0.4-0.6-0.4-1.2c-0.4,0.6-0.9,0.9-1.5,1.2c-0.6,0.2-1.2,0.4-1.8,0.4
		c-0.4,0-0.8-0.1-1.2-0.1s-0.7-0.3-1-0.5s-0.5-0.5-0.7-0.9c-0.2-0.4-0.3-0.8-0.3-1.3c0-0.6,0.1-1,0.3-1.4c0.2-0.4,0.4-0.7,0.7-0.9
		s0.6-0.4,1-0.5c0.4-0.1,0.8-0.2,1.2-0.3c0.4-0.1,0.8-0.2,1.2-0.2c0.4-0.1,0.7-0.1,1-0.2l0.7-0.4l0.3-0.7c0-0.4-0.1-0.7-0.2-0.9
		l-0.5-0.5l-0.7-0.2l-0.7-0.1c-0.7,0-1.2,0.1-1.7,0.4c-0.4,0.3-0.7,0.8-0.7,1.5h-1.6c0-0.6,0.1-1.2,0.4-1.6c0.2-0.4,0.5-0.8,0.9-1
		c0.4-0.3,0.8-0.5,1.3-0.6c0.5-0.1,1-0.2,1.5-0.2c0.4,0,0.9,0,1.3,0.1c0.4,0.1,0.8,0.2,1.1,0.4c0.3,0.2,0.6,0.5,0.8,0.9
		c0.2,0.4,0.3,0.8,0.3,1.4v5.2c0,0.4,0,0.7,0.1,0.9l0.4,0.3l0.5-0.1v1.3C290.7,498.7,290.3,498.8,289.8,498.8 M287.6,493.7
		c-0.3,0.1-0.7,0.1-1,0.2c-0.4,0.1-0.7,0.1-1,0.2c-0.4,0.1-0.7,0.1-1,0.3l-0.7,0.6c-0.2,0.2-0.3,0.6-0.3,1l0.1,0.7l0.4,0.5l0.6,0.3
		l0.7,0.1c0.5,0,0.9-0.1,1.3-0.2c0.4-0.1,0.7-0.3,0.9-0.6l0.5-0.7l0.2-0.7v-1.7L287.6,493.7z"/>
	<path d="M293.8,488.4v2.1h0c0.4-0.8,0.8-1.4,1.4-1.8c0.5-0.4,1.2-0.6,2.1-0.5v1.8c-0.6,0-1.2,0.1-1.6,0.3c-0.4,0.2-0.8,0.4-1.1,0.8
		c-0.3,0.4-0.5,0.8-0.6,1.3c-0.1,0.5-0.2,1.1-0.2,1.7v4.5h-1.6v-10.1H293.8z"/>
</g>
<polygon points="298.6,484.6 298.6,498.6 300.1,498.6 300.1,494.7 301.6,493.3 304.8,498.6 306.8,498.6 302.8,492.1 306.6,488.4 
	304.4,488.4 300.1,492.9 300.1,484.6 "/>
</svg>
