<?xml version="1.0" encoding="utf-8"?>
<!-- Generator: Adobe Illustrator 26.4.0, SVG Export Plug-In . SVG Version: 6.00 Build 0)  -->
<svg version="1.1" id="Layer_1" xmlns="http://www.w3.org/2000/svg" xmlns:xlink="http://www.w3.org/1999/xlink" x="0px" y="0px"
	 viewBox="0 0 666.4 494.6" style="enable-background:new 0 0 666.4 494.6;" xml:space="preserve">
<style type="text/css">
	.st0{fill:#FFFFFF;}
	.st1{fill:#005597;}
	.st2{fill:#E40520;}
	.st3{fill:#B98F00;}
</style>
<g>
	<path d="M25.7,369.7c-1.4-0.2-2.6-0.4-3.9-0.4l0,0c-1.3,0-2.5,0.2-3.9,0.4l0,0l-0.7,0.1l0-0.7c0.3-7,0.7-14.1,0.7-21.1l0,0v-14.1
		c0-5.4-0.1-10.9-0.2-16.3l0,0c-5.5,0-12.5,0.3-16.9,0.9l0,0L0,318.6l0.2-0.8c0.2-0.8,0.4-1.6,0.4-2.4l0,0c0-0.7-0.1-1.5-0.4-2.4
		l0,0L0,312.2l0.7,0c7,0.3,14,0.4,21,0.4l0,0c7,0,14-0.2,21-0.4l0,0l0.7,0l-0.2,0.7c-0.2,0.9-0.4,1.6-0.4,2.5l0,0
		c0,0.7,0.2,1.6,0.4,2.4l0,0l0.2,0.8l-0.8-0.1c-4.4-0.5-11.3-0.9-16.9-0.9l0,0c-0.2,5.5-0.2,10.9-0.2,16.3l0,0V348
		c0,7,0.3,14.1,0.7,21.1l0,0l0,0.7L25.7,369.7L25.7,369.7L25.7,369.7z"/>
	<path d="M103.9,369.7c-1.4-0.2-2.6-0.4-3.9-0.4l0,0c-1.3,0-2.5,0.2-3.9,0.4l0,0l-0.7,0.1l0-0.7c0.3-7,0.6-14.1,0.6-21.1l0,0v-6.8
		c-5.5-0.1-11-0.1-16.5-0.1l0,0c-5.5,0-11,0.1-16.5,0.1l0,0v6.8c0,7,0.3,14.1,0.7,21.1l0,0l0,0.7l-0.7-0.1c-1.4-0.2-2.6-0.4-3.9-0.4
		l0,0c-1.3,0-2.5,0.2-3.9,0.4l0,0l-0.7,0.1l0-0.7c0.3-7,0.6-14.1,0.6-21.1l0,0v-14.1c0-7-0.3-14.1-0.6-21.1l0,0l0-0.7l0.7,0.1
		c1.4,0.2,2.6,0.4,3.9,0.4l0,0c1.3,0,2.5-0.2,3.9-0.4l0,0l0.7-0.1l0,0.7c-0.3,7-0.7,14.1-0.7,21.1l0,0v2.3c5.5,0.1,11,0.2,16.5,0.2
		l0,0c5.5,0,11-0.2,16.5-0.2l0,0v-2.3c0-7-0.3-14.1-0.6-21.1l0,0l0-0.7l0.7,0.1c1.4,0.2,2.6,0.4,3.9,0.4l0,0c1.3,0,2.5-0.2,3.9-0.4
		l0,0l0.7-0.1l0,0.7c-0.3,7-0.7,14.1-0.7,21.1l0,0V348c0,7,0.3,14.1,0.7,21.1l0,0l0,0.7L103.9,369.7L103.9,369.7L103.9,369.7z"/>
	<path d="M151.4,369.7c-4.8-0.2-9.7-0.4-14.7-0.4l0,0c-5,0-9.9,0.2-14.8,0.4l0,0l-0.6,0l0-0.6c0.3-7.1,0.7-14.2,0.7-21.2l0,0v-14
		c0-7-0.3-14.1-0.7-21l0,0l0-0.6l0.6,0c4.9,0.3,9.7,0.4,14.6,0.4l0,0c4.9,0,9.7-0.2,14.5-0.4l0,0l0.7,0l-0.1,0.7
		c-0.2,0.8-0.2,1.6-0.2,2.3l0,0c0,0.8,0.1,1.6,0.2,2.3l0,0l0.1,0.7l-0.7-0.1c-6.8-0.5-10.7-1-20.9-1.1l0,0c-0.1,3.3-0.3,6-0.3,9.8
		l0,0c0,3.9,0.1,8,0.1,10.2l0,0c9.3,0,14.5-0.4,19.2-0.8l0,0l0.7-0.1l-0.1,0.7c-0.2,0.8-0.2,1.6-0.2,2.4l0,0c0,0.8,0.1,1.6,0.2,2.3
		l0,0l0.1,0.7l-0.7-0.1c-5.3-0.5-15-0.7-19.3-0.7l0,0c-0.1,1.8-0.1,4.1-0.1,11.3l0,0c0,5.7,0.1,9.5,0.1,11.7l0,0
		c7.2,0,16.5-0.1,21.4-1.1l0,0l0.8-0.2l-0.2,0.8c-0.2,0.7-0.2,1.7-0.2,2.4l0,0c0,0.7,0.1,1.6,0.2,2.3l0,0l0.2,0.7L151.4,369.7
		L151.4,369.7L151.4,369.7z"/>
	<path d="M234,312.9l-0.1-0.8l0.8,0.2c1,0.2,2.1,0.4,3.2,0.4l0,0c0.7,0,1.6-0.2,2.3-0.4l0,0l0.8-0.3l-0.1,0.8
		c-0.7,7.6-1.3,21.9-1.5,33.8l0,0c-0.1,14.6-8.8,24.1-23.7,24.1l0,0c0,0-0.1,0-0.1,0l0,0c-8.2,0-14.2-1.9-18.1-5.9l0,0
		c-4-4-5.8-10-5.8-18l0,0c0-5.1,0.4-8.9,0.4-12.9l0,0c0-9-0.3-16.4-0.5-21.1l0,0l0-0.7l0.7,0.1c1.3,0.2,2.9,0.4,4.1,0.4l0,0
		c1.1,0,2.4-0.2,3.4-0.4l0,0l0.7-0.2l-0.1,0.8c-0.5,4.8-1,15.9-1,28l0,0c0.1,11.2-0.1,25,17.7,25l0,0c8.8,0,12.9-4,15.1-9.3l0,0
		c2.2-5.3,2.2-12,2.2-17.2l0,0C234.4,323.8,234.4,316,234,312.9L234,312.9L234,312.9z"/>
	<path d="M306.3,370.7h-1.1v-0.5l0.4-0.3l-0.4,0.3v0.5h-0.3l-0.2-0.2c-12.1-14.3-26.6-29.6-40.3-44.2l0,0c-0.1,3.1-0.2,7.7-0.2,15.2
		l0,0c0,7,0.3,24.3,0.7,27.4l0,0l0.1,0.8l-0.8-0.2c-0.9-0.2-1.8-0.4-2.7-0.4l0,0c-0.9,0-1.9,0.2-2.9,0.4l0,0l-0.8,0.2l0.1-0.8
		c0.6-3.7,1.7-24.7,1.7-35.4l0,0c0-10.3,0-18.2-0.2-21.8l0,0l-0.1-0.6h0.6h1.5l0.2,0.2c12.9,14,30.2,32.9,40.4,43.2l0,0
		c0-14.2,0-29.6-0.6-41.7l0,0l0-0.8l0.7,0.2c0.9,0.2,1.8,0.4,2.6,0.4l0,0c0.8,0,1.6-0.1,2.5-0.4l0,0l0.8-0.2l-0.1,0.8
		c-0.5,4.8-1.3,21-1.3,27.3l0,0c0,8.3,0.2,26.4,0.2,30l0,0l0,0.6H306.3L306.3,370.7z"/>
	<path d="M333.1,369.7c-1.4-0.2-2.6-0.4-3.9-0.4l0,0c-1.3,0-2.5,0.1-3.9,0.4l0,0l-0.7,0.1l0-0.7c0.3-7,0.7-14.1,0.7-21.1l0,0v-14
		c0-7-0.3-14.1-0.7-21.1l0,0l0-0.7l0.7,0.1c1.4,0.2,2.6,0.4,3.9,0.4l0,0c1.3,0,2.5-0.2,3.9-0.4l0,0l0.7-0.1l0,0.7
		c-0.3,7-0.7,14.1-0.7,21.1l0,0v14c0,7,0.3,14.1,0.7,21.1l0,0l0,0.7L333.1,369.7L333.1,369.7L333.1,369.7z"/>
	<path d="M345.2,312.8c1.4,0.3,2.9,0.4,4.2,0.4c1.4,0,2.9-0.2,4.2-0.4c4.8,14.5,11.8,31.8,18.6,48.2c6-13.2,15.1-37.5,18.5-48.2
		c1,0.3,2,0.4,3,0.4c1,0,2-0.2,3-0.4c-8.5,18.8-16.3,37.5-23.5,56.3c-0.9-0.2-1.8-0.4-2.7-0.4c-0.9,0-1.9,0.2-2.7,0.4
		C363.1,355.7,353.1,331.6,345.2,312.8L345.2,312.8z"/>
	<path d="M438.4,369.7c-4.8-0.2-9.7-0.4-14.7-0.4l0,0c-5,0-9.9,0.2-14.8,0.4l0,0l-0.6,0l0-0.6c0.3-7.1,0.7-14.2,0.7-21.2l0,0v-14
		c0-7-0.3-14.1-0.7-21l0,0l0-0.6l0.6,0c4.9,0.2,9.7,0.4,14.6,0.4l0,0c4.9,0,9.7-0.2,14.5-0.4l0,0l0.7,0l-0.1,0.7
		c-0.2,0.8-0.2,1.6-0.2,2.3l0,0c0,0.8,0.1,1.6,0.2,2.3l0,0l0.1,0.7l-0.7-0.1c-6.8-0.5-10.7-1-20.9-1.1l0,0c-0.1,3.3-0.3,6-0.3,9.8
		l0,0c0,3.9,0.1,8,0.1,10.2l0,0c9.3,0,14.5-0.4,19.2-0.8l0,0l0.7-0.1l-0.1,0.7c-0.2,0.8-0.2,1.6-0.2,2.4l0,0c0,0.8,0.1,1.6,0.2,2.3
		l0,0l0.1,0.7l-0.7-0.1c-5.4-0.5-15-0.7-19.3-0.7l0,0c-0.1,1.8-0.1,4.1-0.1,11.3l0,0c0,5.7,0.1,9.5,0.1,11.7l0,0
		c7.2,0,16.5-0.1,21.4-1.1l0,0l0.8-0.2l-0.2,0.8c-0.1,0.7-0.2,1.7-0.2,2.4l0,0c0,0.7,0.1,1.6,0.2,2.2l0,0l0.2,0.7L438.4,369.7
		L438.4,369.7L438.4,369.7z"/>
	<path d="M502,366l-0.3-0.3l0.1-0.4c0.9-2.5,1.2-4,1.5-7.1l0,0l0-0.5h0.5h1v0.5v-0.5h0.3l0.2,0.3c1.7,3.7,5.7,8.2,12.4,8.2l0,0
		c7,0,11.1-5,11.1-11.3l0,0c0-7.1-6-9.1-12.5-11.8l0,0c-6.4-2.6-13.2-6-13.2-15.9l0,0c0-9.4,7.2-16,18.3-16l0,0
		c5.2,0,9.1,1.3,12.4,3.9l0,0l0.3,0.3l-0.2,0.4c-0.9,1.8-1.5,3.6-2.1,6.7l0,0l-0.1,0.4h-0.4H530l-0.1-0.4c-1.1-3-3.4-7.3-9.2-7.3
		l0,0c-5.9,0-10,3.9-10,9.6l0,0c0,7.2,6,9.3,12.5,11.9l0,0c6.4,2.5,13.2,5.7,13.2,15l0,0c0,10.2-7.7,18.9-20.5,18.9l0,0c0,0,0,0,0,0
		l0,0C508.9,370.7,504.9,368.3,502,366L502,366L502,366z"/>
	<path d="M557.9,369.7c-1.4-0.2-2.6-0.4-3.9-0.4l0,0c-1.3,0-2.5,0.1-3.9,0.4l0,0l-0.7,0.1l0-0.7c0.3-7,0.7-14.1,0.7-21.1l0,0v-14
		c0-7-0.3-14.1-0.7-21.1l0,0l0-0.7l0.7,0.1c1.4,0.2,2.6,0.4,3.9,0.4l0,0c1.3,0,2.5-0.2,3.9-0.4l0,0l0.7-0.1l0,0.7
		c-0.3,7-0.7,14.1-0.7,21.1l0,0v14c0,7,0.3,14.1,0.7,21.1l0,0l0,0.7L557.9,369.7L557.9,369.7L557.9,369.7z"/>
	<path d="M595.2,369.7c-1.4-0.2-2.6-0.4-3.9-0.4l0,0c-1.3,0-2.5,0.2-3.9,0.4l0,0l-0.7,0.1l0-0.7c0.3-7,0.7-14.1,0.7-21.1l0,0v-14
		c0-5.4-0.1-10.9-0.2-16.3l0,0c-5.5,0-12.5,0.3-16.9,0.9l0,0l-0.8,0.1l0.2-0.8c0.2-0.8,0.4-1.6,0.4-2.5l0,0c0-0.7-0.1-1.5-0.4-2.4
		l0,0l-0.2-0.7l0.7,0c7,0.3,14,0.4,21,0.4l0,0c7,0,14-0.2,21-0.4l0,0l0.7,0l-0.2,0.7c-0.2,0.9-0.4,1.6-0.4,2.5l0,0
		c0,0.7,0.1,1.6,0.4,2.4l0,0l0.2,0.8l-0.8-0.1c-4.4-0.5-11.3-0.9-16.9-0.9l0,0c-0.2,5.5-0.2,10.9-0.2,16.3l0,0v14
		c0,7,0.3,14.1,0.7,21.1l0,0l0,0.7L595.2,369.7L595.2,369.7L595.2,369.7z"/>
	<path d="M618.5,313.1l-0.7-1l1.2,0.2c1.4,0.2,3,0.4,4.4,0.4l0,0c1.4,0,2.9-0.2,4.4-0.4l0,0l0.4-0.1l0.2,0.4c4.6,9,9.6,18,15,27.4
		l0,0c4.9-7.8,10.7-18.4,14.9-27.4l0,0l0.2-0.4l0.4,0.1c1,0.2,2.1,0.4,3.1,0.4l0,0c1,0,2-0.2,3-0.4l0,0l1.3-0.3l-0.7,1.1
		c-10.3,15.8-16.2,25.3-19.6,32.1l0,0c0,8,0.2,18.9,0.6,23.9l0,0l0.1,0.7l-0.7-0.1l0,0c-1.4-0.2-2.7-0.4-3.9-0.4l0,0
		c-1.2,0-2.5,0.1-3.9,0.4l0,0l-0.7,0.1l0.1-0.7c0.6-5.7,0.7-14.3,0.7-23l0,0C634.8,340.3,621.9,318.2,618.5,313.1L618.5,313.1
		L618.5,313.1z"/>
	<path d="M31.8,448c-0.3,4.6-2.7,12.7-8.9,19.2c-5.2,5.4-9.8,5.8-12.1,5.8c-5.4,0-9-4-8.4-11.2c0.3-5.2,3.5-13.4,9.2-18.9
		c4.4-4.2,8.2-5.5,11.7-5.5C29.2,437.4,32.1,441.9,31.8,448L31.8,448z M16.4,444c-4.9,6.6-8.2,16.6-8.4,21.1c-0.2,3,1,5.4,3.5,5.4
		c1.9,0,4-0.8,6.7-4.4c3.7-5,7.7-16.1,7.9-20.6c0.1-2.6-0.4-5.6-3.4-5.6C20.9,439.9,18.9,440.7,16.4,444L16.4,444z"/>
	<path d="M52.1,441.7c-0.5,1.4-1.2,4.1-2.2,7.8c-2.5,9.5-4.8,17.6-7.5,26.9c-2.2,7.6-5,11.9-6.7,13.6c-1.3,1.2-5.2,4.6-10.1,4.6
		c-4.6,0-6.2-2.9-6.2-4.1c0-1.7,1-3.1,1.9-3.8c0.7-0.5,1.4-0.3,1.9,0.3c2,2.1,4.6,3.5,6.4,3.5c1.7,0,3.5-0.6,5.4-7.1
		C39,470,41.9,455.5,46,441.7h-7c-0.8-0.8-0.5-2.4,0.6-3.1h7.3c2.2-7.6,4.5-14.2,9.5-20.1c4.2-5,8.6-7,13.5-7c3.1,0,6.5,2.2,6.5,5.6
		c0,2.2-2.3,4.8-3.6,4.8c-0.8,0-1.1-0.8-1.2-1.3c-0.3-4.6-2.6-6.2-4.7-6.2c-1.9,0-4.1,1.7-6.1,4.6c-3.9,5.7-5.6,11.6-7.8,19.7h10.6
		c0.6,0.9,0.4,2.2-0.8,3.1H52.1L52.1,441.7z"/>
	<path d="M91.9,460.9c-2.6,5.9-7.7,17.4-12,33.7c-1.5-0.3-2.8-0.8-5.3-0.8c-2.4,0-4,0.5-5.7,0.8c11.4-24.9,30.5-66.9,39.6-90
		c1,0.1,1.8,0.4,3.2,0.4c1.2,0,1.8-0.1,2.8-0.4c9.9,27,38.3,89.5,38.6,90c-2.2-0.4-4.4-0.8-7.6-0.8c-3.3,0-5.8,0.4-8.2,0.8
		c-4.5-15.4-9.8-26.6-13-33.7H91.9L91.9,460.9z M108,422.5l-13.5,31.9h27.4L108,422.5L108,422.5z"/>
	<path d="M199.2,494.5c-1.3,0-17.1-0.5-20.4-0.5c-3.5,0-6.4,0.1-13.8,0.5c0.9-13,1.5-21.9,1.5-51.4c0-19.2-0.3-24-1-37.8
		c7.1,0.3,14,0.4,21.1,0.4c23,0,35.4,0,47.3,9.5c11.2,8.9,14.1,21.2,14.1,32.4C248,480.2,224.9,494.5,199.2,494.5L199.2,494.5z
		 M220.8,418.4c-9-6.8-19.9-6.8-30.2-6.8c-6.2,0-7.2,0.1-11.3,0.5c-0.5,11.8-0.6,25-0.6,36.8c0,23.5,0,26.2,0.4,39
		c4.4,0.5,7.6,0.8,13.8,0.8c5.5,0,17.9,0,26.6-6.2c12-8.5,14.4-23,14.4-33.3C233.8,439.5,231.6,426.5,220.8,418.4L220.8,418.4z"/>
	<path d="M304.2,443.5c-0.3,1.4-0.5,2.6-0.5,4.4c0,1.4,0.4,2.6,0.5,4c-6.7-0.9-14.4-1.3-19.9-1.3c-3.5,0-7.2,0.1-10.4,0.3
		c-0.1,5.5-0.3,11.3-0.3,16.9c0,6.7,0.3,16.5,0.4,19.9c8.2,0,18.7,0,33.8-1.5c-0.3,1.4-0.5,2.6-0.5,4.4c0,1.8,0.3,2.8,0.5,4.1
		c-5.9-0.8-12-0.8-17.9-0.8c-9.9,0-19.9,0.4-29.8,0.8c0.8-9.6,1.4-18,1.4-46c0-12.9-0.3-30.2-1-42.8c9,0.8,17.9,0.8,26.9,0.8
		c6.6,0,13-0.1,19.6-0.8c-0.3,1.4-0.5,2.8-0.5,4.5c0,1.8,0.3,2.8,0.5,4.1c-4.8-0.9-9.3-1.7-20.4-1.7c-4.6,0-6.9,0-12.5,0.3
		c-0.3,5-0.3,7.2-0.3,14.8c0,8.4,0,9.9,0.1,16.7C284.1,444.5,294.2,444.7,304.2,443.5L304.2,443.5z"/>
	<path d="M351.8,487.5c6.6,0,17.4-0.5,23.3-1.5c-0.3,1.1-0.5,2.4-0.5,4.2c0,2.1,0.3,3.3,0.5,4.4c-8.4-0.3-13.8-0.8-27.8-0.8
		c-11.3,0-14.5,0.4-21.5,0.8c1-16.5,1.2-30.1,1.2-46.9c0-17.5-0.8-36.5-1-42c2.1,0.4,3.7,0.8,6.9,0.8c3.3,0,5.8-0.4,8.1-0.8
		c-1.2,32.9-1.2,41.7-1.2,81.7C346,487.5,348.6,487.5,351.8,487.5L351.8,487.5z"/>
	<path d="M401.2,460.9c-2.6,5.9-7.7,17.4-12,33.7c-1.5-0.3-2.8-0.8-5.3-0.8c-2.4,0-4,0.5-5.7,0.8c11.4-24.9,30.5-66.9,39.6-90
		c1,0.1,1.8,0.4,3.2,0.4c1.1,0,1.8-0.1,2.8-0.4c9.9,27,38.3,89.5,38.6,90c-2.2-0.4-4.4-0.8-7.6-0.8c-3.3,0-5.8,0.4-8.2,0.8
		c-4.5-15.4-9.8-26.6-13-33.7H401.2L401.2,460.9z M417.3,422.5l-13.5,31.9h27.4L417.3,422.5L417.3,422.5z"/>
	<path d="M478.4,405.6c2.1,0.5,3.6,0.8,7.1,0.8c3.6,0,5.3-0.3,7.5-0.8c-0.8,15.3-1,30.6-1,45.9c0,23.1,0.5,33.4,0.9,43.1
		c-2.5-0.4-5.2-0.8-8-0.8c-2.8,0-4.8,0.4-6.8,0.8c0.9-14,1.3-20.6,1.3-45.8C479.3,430.2,479.3,429.1,478.4,405.6L478.4,405.6z"/>
	<path d="M551.3,494.5c-1.3,0-17.1-0.5-20.4-0.5c-3.5,0-6.4,0.1-13.8,0.5c0.9-13,1.5-21.9,1.5-51.4c0-19.2-0.3-24-1-37.8
		c7.1,0.3,14,0.4,21.1,0.4c23,0,35.4,0,47.3,9.5c11.2,8.9,14.1,21.2,14.1,32.4C600.2,480.2,577,494.5,551.3,494.5L551.3,494.5z
		 M572.9,418.4c-9-6.8-19.9-6.8-30.2-6.8c-6.2,0-7.2,0.1-11.3,0.5c-0.5,11.8-0.6,25-0.6,36.8c0,23.5,0,26.2,0.4,39
		c4.4,0.5,7.6,0.8,13.8,0.8c5.5,0,17.9,0,26.6-6.2c12-8.5,14.4-23,14.4-33.3C585.9,439.5,583.7,426.5,572.9,418.4L572.9,418.4z"/>
	<path d="M661.5,443.5c-0.3,1.4-0.5,2.6-0.5,4.4c0,1.4,0.4,2.6,0.5,4c-6.7-0.9-14.4-1.3-19.9-1.3c-3.5,0-7.2,0.1-10.4,0.3
		c-0.1,5.5-0.3,11.3-0.3,16.9c0,6.7,0.3,16.5,0.4,19.9c8.2,0,18.6,0,33.8-1.5c-0.3,1.4-0.5,2.6-0.5,4.4c0,1.8,0.3,2.8,0.5,4.1
		c-5.9-0.8-12-0.8-17.9-0.8c-9.9,0-19.9,0.4-29.8,0.8c0.8-9.6,1.4-18,1.4-46c0-12.9-0.3-30.2-1-42.8c9,0.8,17.9,0.8,26.9,0.8
		c6.6,0,13-0.1,19.5-0.8c-0.3,1.4-0.5,2.8-0.5,4.5c0,1.8,0.3,2.8,0.5,4.1c-4.8-0.9-9.3-1.7-20.4-1.7c-4.6,0-6.9,0-12.5,0.3
		c-0.3,5-0.3,7.2-0.3,14.8c0,8.4,0,9.9,0.1,16.7C641.3,444.5,651.5,444.7,661.5,443.5L661.5,443.5z"/>
	<polygon points="0.6,387.4 664.1,387.4 664.1,386 0.6,386 0.6,387.4 	"/>
	<path d="M494.6,368.8c-4.5-5-17.2-21.3-21.8-27.1c6.4-1.1,16.2-5.5,16.3-16c0-5-2-8.5-5.3-10.6c-3.2-2.1-7.6-2.9-12.3-2.9
		c-3.1,0-6.2,0.4-9.3,0.4c-3.1,0-6.2-0.2-9.3-0.4l-0.6,0l0,0.6c0.3,7,0.7,14.1,0.7,21.1v14c0,7-0.3,14.1-0.7,21.1l0,0.7l0.7-0.1
		c1.4-0.2,2.6-0.4,3.9-0.4c1.3,0,2.5,0.1,3.9,0.4l0.7,0.1l0-0.7c-0.3-7-0.6-14.1-0.6-21.1v-5.4h2.3c7,7.1,17.7,21.9,20.9,26.9
		l0.2,0.3l0.3-0.1c1.5-0.3,3.1-0.4,4.7-0.4c1.6,0,3.2,0.1,4.8,0.4l1.5,0.2L494.6,368.8L494.6,368.8z M465.8,338.5
		c-1.9,0-3.6-0.1-4.9-0.3v-4.2c0-5.7,0.2-11.4,0.5-17.2c1.7-0.2,4-0.4,7.4-0.4c5.5,0.1,12.1,2,12.1,10.1
		C480.8,335.8,472.4,338.4,465.8,338.5L465.8,338.5z"/>
	<path class="st0" d="M332.2,229.6c-59.4-25.8-89.7-72.2-90.1-137.9h180.3C421.9,157.5,391.6,203.8,332.2,229.6L332.2,229.6
		L332.2,229.6z"/>
	<path d="M386.3,107.7h-5.7v-7.1H373v-7l-3.5,1.3c-4.8,1.8-8.8,3.3-18.5,3.3c-11.5,0-16.7,2.7-19,4.6c-2.3-2-7.5-4.6-18.9-4.6
		c-9.7,0-13.8-1.5-18.5-3.3l-3.5-1.3v7h-7.6v7.1h-7.6v73.8l49.6,0c0,0,0.1,0.1,0.2,0.1c0.2,3.4,2.8,6.1,6.1,6.1
		c3.2,0,5.7-2.6,6.1-5.9c0.2-0.1,0.5-0.3,0.8-0.4l49.6,0v-73.8H386.3L386.3,107.7z"/>
	<path class="st1" d="M422.4,8.8c0,7,0,64.6,0,78.6H242.1c0-13.9,0-71.6,0-78.6C250.3,8.8,414.2,8.8,422.4,8.8L422.4,8.8L422.4,8.8z
		"/>
	<path d="M332.2,229.6c-59.4-25.8-89.7-72.2-90.1-137.9h180.3C421.9,157.5,391.6,203.8,332.2,229.6L332.2,229.6L332.2,229.6z
		 M422.4,8.8c0,7,0,64.6,0,78.6H242.1c0-13.9,0-71.6,0-78.6C250.3,8.8,414.2,8.8,422.4,8.8L422.4,8.8z M431.2,0H233.2v90.4
		c0,71,32.7,120.8,97.3,148.1l1.7,0.7l1.7-0.7c64.5-27.3,97.2-77.1,97.2-148.1L431.2,0L431.2,0z"/>
	<path class="st2" d="M452.1,188.8c-23.1,5-42.1,13.6-54,24.3l0.1,0.3l-0.6-0.1l8.4,18.6c-16.7,8.2-40,14.4-71.5,14.4h-1.1
		c-31.7,0-55.1-6.2-71.8-14.6l7.7-17.9l0.4-0.7c-11.9-10.7-30.9-19.2-54.1-24.3l0,29.6c11.1,3.7,18.2,6.5,24.3,12l-2.8,5.5
		l-5.6,10.9l0.1,0l-1.1,2.1c19.4,17.4,58.3,29.8,102.7,29.8h1.1c44.4,0,83.2-12.4,102.6-29.8l-9.3-18.6c6.1-5.5,13.2-8.2,24.2-11.9
		V188.8L452.1,188.8z"/>
	<path class="st0" d="M246,245.9c-0.1,0.1-0.1,0.3-0.2,0.4c-0.7,1.3-0.8,2,0,2.5c0.6,0.3,1.3,0.1,1.7-0.7c0.6-1,0-1.7-0.6-2.9
		c-0.7-1.3-1.2-2.3-1.3-3.2c-0.1-0.8,0.1-1.7,0.6-2.6c1.2-2.2,3.3-2.8,5.5-1.6c2.5,1.3,3.1,3.3,1.8,5.6c-0.1,0.1-0.2,0.3-0.2,0.4
		l-2.7-1.4c0-0.1,0.1-0.1,0.1-0.2c0.6-1.1,0.5-1.9-0.1-2.2c-0.5-0.3-1.1-0.1-1.5,0.6c-0.5,0.9,0.1,1.7,0.8,3
		c0.6,1.1,1.2,2.1,1.3,3.1c0.1,0.8-0.1,1.6-0.6,2.5c-1.4,2.5-3.5,3.2-5.9,1.9c-2.6-1.4-3.1-3.4-1.7-6c0.1-0.2,0.3-0.5,0.4-0.7
		L246,245.9L246,245.9z"/>
	<path class="st0" d="M261.6,242.9l-3.4,8.4c-0.7,1.8-1.1,2.8,0,3.2c1,0.4,1.4-0.5,2.1-2.2c0-0.1,0.1-0.1,0.1-0.2l3.4-8.4l3.1,1.3
		l-3,7.5c-0.2,0.4-0.3,0.7-0.4,1c-0.5,1.3-1,2.5-1.9,3.2c-1.1,1-2.6,1-4.4,0.2c-1.7-0.7-2.7-1.6-2.9-3.1c-0.2-1.3,0.4-2.9,1.3-5.1
		l2.9-7.2L261.6,242.9L261.6,242.9z"/>
	<path class="st0" d="M272.2,252.7l0.9-3.1c0.1,0,0.2,0.1,0.3,0.1c1.1,0.3,1.6,1.1,1.3,2c-0.3,1.1-1.1,1.5-2.3,1.1
		C272.3,252.7,272.3,252.7,272.2,252.7L272.2,252.7L272.2,252.7z M266.5,260.1l3.8,1.1c1.7,0.5,2.9,0.8,4,0.1c1-0.5,1.8-1.5,2.2-2.8
		c0.5-1.5,0.1-2.8-0.9-3.7c1.3-0.6,2-1.3,2.4-2.5c0.4-1.3,0.2-2.5-0.6-3.4c-0.8-0.8-1.8-1.1-3.3-1.6l-3.4-1.1L266.5,260.1
		L266.5,260.1z M270.4,258.6l1.1-3.5c0.1,0,0.1,0,0.2,0c1.4,0.5,1.9,1.1,1.6,2.3c-0.4,1.2-1.2,1.7-2.6,1.3
		C270.6,258.7,270.5,258.6,270.4,258.6L270.4,258.6z"/>
	<path class="st0" d="M297.2,261.7c0,0.3-0.1,0.5-0.1,0.7c-0.6,3.4-2.4,4.8-5.6,4.3c-1.8-0.3-3-1.2-3.6-2.6c-0.5-1.2-0.2-3,0.2-5.7
		c0.5-2.7,0.9-4.5,1.8-5.4c1-1.1,2.5-1.5,4.2-1.1c3.1,0.6,4.3,2.6,3.7,6c0,0.1,0,0.1,0,0.1l-3.2-0.6c0.3-1.8,0.1-2.7-0.9-2.8
		c-1.3-0.3-1.6,1.1-2.2,4.2c-0.1,0.1-0.1,0.2-0.1,0.2c-0.6,3.3-0.9,4.8,0.5,5c1.1,0.2,1.5-0.5,1.8-2.3c0-0.2,0.1-0.4,0.1-0.6
		L297.2,261.7L297.2,261.7z"/>
	<path class="st0" d="M301,267.9l3.3,0.4l0.7-5.7l0.7,0.1c1.3,0.2,1.5,0.8,1.3,2.5c-0.1,0.4-0.1,0.8-0.2,1.5c-0.1,0.7-0.1,1.4,0,2
		l3.9,0.5c-0.8-0.8-0.5-2-0.4-3.9c0.1-1.7,0.2-2.6-1.3-3.5c1.3-0.6,2-1.6,2.2-3.2c0.2-1.3-0.1-2.3-0.8-3.1c-0.8-0.8-2-1-3.9-1.2
		l-3.8-0.4L301,267.9L301,267.9z M305.3,260l0.4-3.5c0.1,0,0.3,0,0.4,0c1.4,0.2,1.9,0.7,1.7,1.9c-0.1,1.3-0.7,1.8-2.1,1.6
		C305.6,260,305.4,260,305.3,260L305.3,260z"/>
	<path class="st0" d="M318.9,255.3l-0.5,9c-0.1,2-0.1,3,1,3.1c1.1,0.1,1.2-0.9,1.3-2.8c0,0,0-0.1,0-0.2l0.5-9l3.3,0.2l-0.5,8.1
		c0,0.4,0,0.7-0.1,1.1c-0.1,1.5-0.2,2.7-0.8,3.6c-0.8,1.3-2.1,1.8-4.1,1.6c-1.9-0.1-3-0.7-3.7-2c-0.6-1.2-0.5-2.9-0.4-5.2l0.5-7.7
		L318.9,255.3L318.9,255.3z"/>
	<path class="st0" d="M337.9,264.6c0,0.3,0,0.5,0,0.7c0,3.5-1.5,5.2-4.7,5.2c-1.9,0-3.2-0.6-4-1.9c-0.7-1.1-0.8-2.9-0.8-5.6
		c0-2.7,0.1-4.6,0.8-5.7c0.8-1.2,2.1-1.9,3.9-1.8c3.1,0,4.7,1.8,4.7,5.2c0,0.1,0,0.1,0,0.1h-3.3c0-1.8-0.3-2.7-1.4-2.7
		c-1.4,0-1.4,1.4-1.4,4.5c0,0.1,0,0.2,0,0.3c0,3.3,0,4.8,1.4,4.8c1.1,0,1.4-0.8,1.4-2.6c0-0.2,0-0.4,0-0.7L337.9,264.6L337.9,264.6z
		"/>
	<polygon class="st0" points="341.9,255.7 349.7,255.3 349.9,258 345.4,258.3 345.6,260.9 349.7,260.7 349.8,263.6 345.7,263.8 
		345.9,266.9 350.4,266.7 350.5,269.6 342.7,270 341.9,255.7 	"/>
	<polygon class="st0" points="362.6,268.4 360.6,254.2 364,253.7 365.5,265.1 369.5,264.5 369.9,267.4 362.6,268.4 	"/>
	<path class="st0" d="M374.4,252l1.8,8.8c0.4,2,0.6,2.9,1.8,2.7c1.1-0.2,0.9-1.2,0.5-3c0-0.1,0-0.1,0-0.2l-1.8-8.8l3.3-0.7l1.6,7.9
		c0.1,0.4,0.1,0.7,0.2,1.1c0.3,1.4,0.5,2.6,0.2,3.7c-0.5,1.4-1.6,2.2-3.6,2.6c-1.8,0.4-3.1,0.1-4.1-1c-0.9-1-1.2-2.6-1.7-5l-1.5-7.6
		L374.4,252L374.4,252z"/>
	<path class="st0" d="M383.8,250.1l4.5-1.4l3,5.5c0.1,0.2,0.5,1.2,1.4,3.1c-0.3-2-0.5-3.2-0.5-3.4l-0.5-6.2l4.4-1.3l4.1,13.7l-3,0.9
		l-2.9-10.7l1,11.3l-2.4,0.7l-5.3-10l3.4,10.5l-3,0.9L383.8,250.1L383.8,250.1z"/>
	<polygon class="st0" points="399.7,245 406.9,241.9 408,244.5 403.9,246.3 404.9,248.7 408.7,247.1 409.8,249.7 406,251.3 
		407.2,254.2 411.3,252.5 412.5,255.2 405.3,258.2 399.7,245 	"/>
	<path class="st0" d="M410.1,240.4l3-1.8l6.9,6.2c-1.6-2.4-2.8-4.2-3.6-5.5l-1.1-1.9l2.6-1.5l7.2,12.4l-3,1.8l-7-6.5
		c1.4,1.9,2.6,3.8,3.7,5.6l1.2,2.1l-2.6,1.5L410.1,240.4L410.1,240.4z"/>
	<path class="st0" d="M330.5,170.8L330.5,170.8c-4.4-4.9-9-6.5-13.4-6.5l-4.5,0.4c-4.9,0.5-11.6,1.2-14.8,1.2h-6.7v-61.4
		c-1.4,0-2.7,0-3.7,0c0,3.6,0,62,0,65.6c2.8,0,10.4,0,10.4,0c3,0,9.9-0.7,14.5-1.2l4.9-0.5c4.1,0,8.8-0.6,13.4,2.6V170.8
		L330.5,170.8z"/>
	<path class="st0" d="M373,104.5v61.4h-6.7c-3.3,0-10-0.7-14.9-1.2l-4.5-0.4c-4.4,0-9,1.6-13.3,6.5l-0.2,0.2v0.3
		c4.5-3.4,9.3-2.8,13.5-2.8l4.9,0.5c4.6,0.5,11.4,1.2,14.5,1.2c0,0,7.6,0,10.4,0c0-3.6,0-62,0-65.6
		C375.8,104.5,374.4,104.5,373,104.5L373,104.5L373,104.5z"/>
	<path class="st0" d="M317.2,160.4l-4.9,0.5c-4.6,0.5-11.4,1.2-14.5,1.2c0,0-1.5,0-2.8,0c0-3.5,0-57.7,0-62.7
		c4.3,1.6,9,2.9,18.1,2.9c14.5,0,17.1,4.5,17.2,4.5l0.3,0.5v57.5C325.9,161.1,321.3,160.4,317.2,160.4L317.2,160.4L317.2,160.4z"/>
	<path class="st0" d="M369.1,162c-1.3,0-2.8,0-2.8,0c-3,0-9.9-0.7-14.5-1.2l-4.9-0.5c-4.2,0-8.9,0.7-13.5,4.4v-57.6l0.3-0.5
		c0,0,2.8-4.5,17.3-4.5c9.1,0,13.7-1.3,18.1-2.9C369.1,104.3,369.1,158.5,369.1,162L369.1,162L369.1,162z"/>
	<path d="M314.2,120.1c-6.2,0.1-11.2-0.3-15-1.2v2c3.9,0.9,8.9,1.3,15,1.2l3.6,0.1c3.4,0.2,6.1,0.7,8.2,1.4v-2
		c-2.2-0.7-4.8-1.2-8.1-1.4L314.2,120.1L314.2,120.1z"/>
	<path d="M314.3,127.9c-6.6,0.2-11.9,0-15.2-0.5v2c4.3,0.6,10.5,0.6,15.3,0.5h3.3c3.6,0.2,6.2,0.6,8.4,1.5v-2.1
		c-2.2-0.8-4.8-1.2-8.3-1.4H314.3L314.3,127.9z"/>
	<path d="M314.6,135.8c-5.3,0.2-11.6,0.4-15.4,0.1v2c4,0.3,10.3,0.1,15.5-0.1l2.9,0c2.7,0.1,5.7,0.4,8.5,1.6v-2.1
		c-2.8-1.1-5.8-1.3-8.4-1.4L314.6,135.8L314.6,135.8z"/>
	<path d="M314.7,143.9l-1.7,0.1c-4.4,0.3-10.3,0.7-13.9,0.7v2c3.7,0.1,9.6-0.4,14-0.7l1.7-0.1l2.5-0.1c2.8,0,5.8,0.3,8.6,1.6l0-2.1
		c-2.9-1.1-5.9-1.4-8.5-1.5L314.7,143.9L314.7,143.9z"/>
	<path d="M317.2,151.9l-4.8,0.5c-4,0.4-9.8,1-13.2,1.2v2c3.5-0.1,9.4-0.8,13.4-1.2l4.6-0.5c2.6,0,5.7,0.2,8.7,1.7l0-2.1
		C322.8,152.1,319.7,151.9,317.2,151.9L317.2,151.9L317.2,151.9z"/>
	<path d="M313.9,112.3c-5.1,0-8.6-0.4-11.4-1v-5c-1.1-0.2-2.1-0.4-3.4-0.9v7.1c3.3,1,7.5,1.8,14.7,1.8c4.9,0,9,0.5,12.2,1.5v-2
		C322.8,112.8,318.8,112.3,313.9,112.3L313.9,112.3L313.9,112.3z"/>
	<path d="M350.2,114.5c7.3,0,11.5-0.9,14.8-1.8v-2.1c-3.2,1-7.3,1.9-14.8,1.9c-3.1,0-6,0.2-8.4,0.6v-5.7c-0.7,0.1-1.3,0.3-1.9,0.4
		c-0.5,0.1-1.1,0.3-1.6,0.5v7.6C341.5,115,345.5,114.5,350.2,114.5L350.2,114.5L350.2,114.5z"/>
	<path d="M350,120.3l-3.8,0.1c-3.2,0.2-5.8,0.6-8,1.3v2.1c2.1-0.7,4.8-1.2,8.1-1.4l3.6-0.1c6.1,0.1,11.2-0.3,15-1.2v-2
		C361.3,120,356.3,120.4,350,120.3L350,120.3L350,120.3z"/>
	<path d="M349.9,128.2h-3.4c-3.3,0.1-6,0.6-8.1,1.3v2.1c2.1-0.8,4.7-1.3,8.2-1.5h3.3c4.7,0.1,10.9,0.1,15.2-0.5v-1.9
		C361.7,128.1,356.4,128.3,349.9,128.2L349.9,128.2L349.9,128.2z"/>
	<path d="M349.7,136l-3.1-0.1c-2.6,0.1-5.5,0.4-8.3,1.4v2.1c2.7-1.1,5.8-1.4,8.4-1.5l2.9,0c5.2,0.2,11.5,0.5,15.5,0.1v-2
		C361.2,136.5,354.9,136.2,349.7,136L349.7,136L349.7,136z"/>
	<path d="M351.2,144.3l-1.7-0.1c0,0-2.7-0.1-2.7-0.1c-2.6,0-5.6,0.3-8.5,1.4v2.1c2.9-1.3,5.9-1.5,8.5-1.6l2.5,0.1
		c0,0,1.7,0.1,1.7,0.1c4.4,0.3,10.4,0.7,14,0.6v-2C361.5,145,355.6,144.6,351.2,144.3L351.2,144.3L351.2,144.3z"/>
	<path d="M351.8,152.6l-4.8-0.5c-2.5,0-5.6,0.2-8.7,1.5v2.1c3-1.4,6.1-1.7,8.7-1.7l4.6,0.4c4.1,0.4,9.9,1,13.5,1.2v-2
		C361.6,153.7,355.8,153.1,351.8,152.6L351.8,152.6L351.8,152.6z"/>
	<path class="st0" d="M317.2,172.4l-4.5,0.4c-4.9,0.5-11.6,1.2-14.8,1.2h-14.3v-62.4c-1.6,0-3,0-3.7,0c0,3.6,0,62.4,0,66
		c3.2,0,18,0,18,0c3,0,9.9-0.7,14.5-1.2l4.9-0.4c3.2,0,6.9-1,10.5,0.2l0.1-0.3C324.2,173.2,320.6,172.4,317.2,172.4L317.2,172.4
		L317.2,172.4z"/>
	<path class="st0" d="M380.6,111.6V174h-14.3c-3.3,0-10-0.7-14.9-1.2l-4.5-0.4c-3.6,0-7.4,0.8-11,3.8l0,0.1c3.8-1.4,7.6-0.4,11-0.4
		l4.9,0.4c4.6,0.5,11.4,1.2,14.5,1.2c0,0,14.8,0,18,0c0-3.6,0-62.4,0-66C383.6,111.6,382.2,111.6,380.6,111.6L380.6,111.6
		L380.6,111.6z"/>
	<polygon class="st0" points="347.1,67.5 353.6,67.5 356.4,62.9 359.1,67.5 365.6,67.5 362.4,73 365.6,78.5 359.1,78.5 356.4,83.1 
		353.6,78.5 347.1,78.5 350.3,73 347.1,67.5 	"/>
	<polygon class="st0" points="370.1,30.3 374.2,35.8 381.2,35.5 379.2,42 383.8,47.1 377.3,49.6 376.1,56.3 370.1,53.1 363.9,56.2 
		362.8,49.7 356.4,47 361,41.9 359.1,35.5 366,35.8 370.1,30.3 	"/>
	<polygon class="st0" points="332.6,13.4 336.7,18.9 343.7,18.6 341.7,25 346.3,30.2 339.8,32.7 338.6,39.4 332.6,36.2 326.4,39.3 
		325.3,32.8 318.9,30 323.5,25 321.6,18.6 328.6,18.9 332.6,13.4 	"/>
	<polygon class="st0" points="332.9,56.4 336.1,61 341.7,62.6 338.1,67 338.2,72.5 332.9,70.7 327.4,72.6 327.6,67 324.1,62.6 
		329.6,61 332.9,56.4 	"/>
	<polygon class="st0" points="317.1,63 312.3,58.2 312.3,51.1 304.9,51.1 299.7,46 294.5,51.1 287.3,51.1 287.3,58.1 282.2,63 
		287.3,67.9 287.3,74.9 294.5,74.9 299.7,80 304.9,74.9 312.3,74.9 312.3,67.8 317.1,63 	"/>
	<path class="st2" d="M392.1,160.4v-27.1h1.7v-8.2h-1.7v-9.5h-3.9v65.8l-49.6,0c-0.3,0.1-0.5,0.3-0.8,0.4c-0.3,3.3-2.9,5.9-6.1,5.9
		c-3.3,0-5.9-2.7-6.1-6.1c-0.1-0.1-0.2-0.1-0.2-0.1l-49.6,0v-65.8h-3.7v9.5h-1.5v8.2h1.5v27.1h-1.5v8.2h1.5v16.5H322
		c1.7,3.9,5.5,6.5,10,6.5c4.5,0,8.3-2.7,10-6.5h50v-16.5h1.7v-8.2H392.1L392.1,160.4z"/>
	<path class="st3" d="M242.1,91.7c0.4,65.7,30.8,112.1,90.1,137.9v-38c-0.1,0-0.1,0-0.2,0c-4.5,0-8.3-2.7-10-6.5h-49.9v-16.5h-1.5
		v-8.2h1.5v-27.1h-1.5v-8.2h1.5v-9.5h3.7l0-8h7.6v-7.1h7.6v-7l3.5,1.3c4.7,1.8,8.9,3.3,18.5,3.3c11.4,0,16.6,2.7,18.9,4.6
		c0.1-0.1,0.1-0.1,0.2-0.2v-11H242.1L242.1,91.7z"/>
</g>
</svg>
